<?xml version="1.0" encoding="UTF-8"?>
<svg id="uuid-72cbf568-1d76-4fd6-9283-8e0a23b1d39f" data-name="Layer 1" xmlns="http://www.w3.org/2000/svg" xmlns:xlink="http://www.w3.org/1999/xlink" viewBox="0 0 800 800">
  <defs>
    <linearGradient id="uuid-d8800964-7b42-4a59-9876-6f7bf442e7cb" x1="320.7" y1="291.28" x2="690.72" y2="504.91" gradientUnits="userSpaceOnUse">
      <stop offset="0" stop-color="#f1f2f5"/>
      <stop offset=".13" stop-color="#e3e5e6"/>
      <stop offset=".51" stop-color="#bfc2c0"/>
      <stop offset=".81" stop-color="#a9ada8"/>
      <stop offset="1" stop-color="#a1a6a0"/>
    </linearGradient>
    <linearGradient id="uuid-afa4667a-67b4-4a51-975b-af12d3d1a1e8" x1="68.45" y1="299.54" x2="467.98" y2="530.2" gradientUnits="userSpaceOnUse">
      <stop offset="0" stop-color="#005dab"/>
      <stop offset=".19" stop-color="#007bbb"/>
      <stop offset=".57" stop-color="#00b6da"/>
      <stop offset=".85" stop-color="#00dbed"/>
      <stop offset="1" stop-color="#00e9f5"/>
    </linearGradient>
  </defs>
  <circle cx="400" cy="400" r="400" fill="#00082c"/>
  <g>
    <path d="M292.19,401.17v-1.17c0-116.7,87.97-212.3,214.06-212.3,77.41,0,123.74,25.8,161.86,63.34l-57.47,66.27c-31.67-28.74-63.92-46.33-104.98-46.33-69.2,0-119.05,57.47-119.05,127.85v1.17c0,70.37,48.68,129.02,119.05,129.02,46.92,0,75.65-18.77,107.91-48.09l57.47,58.06c-42.23,45.16-89.14,73.31-168.31,73.31-120.81,0-210.54-93.25-210.54-211.12Z" fill="url(#uuid-d8800964-7b42-4a59-9876-6f7bf442e7cb)"/>
    <path d="M289.06,194.74h-160.1v410.52h160.1c16.68.18,38.4-1.3,62.87-7.66,15.98-4.15,29.7-9.49,40.97-14.76-2.56-1.59-6.15-3.91-10.35-6.86-8-5.64-23.23-17.16-39.15-35.24-4.76-5.41-10.69-12.65-16.92-21.7-5.06,1.32-10.8,2.52-17.13,3.38-7.48,1.01-14.31,1.35-20.28,1.32h-69.79v-247.48h69.79c73.89,0,123.74,51.02,123.74,123.74v1.17c.11,8.5-.56,19.58-3.52,32.14-2.58,10.96-6.2,20.06-9.58,27.07,1.65,3.82,4.22,9.16,8.02,15.16,2.15,3.39,9.69,14.88,23.23,26.34,8.75,7.4,16.43,11.76,19.34,13.34,6.74,3.67,12.59,5.92,15.46,6.96,2.28.82,4.23,1.45,5.7,1.89,9.51-15.75,20.86-38.46,28.21-67.47,5.51-21.76,7.28-41.18,7.55-56.6v-1.17c0-115.53-89.14-204.09-218.16-204.09Z" fill="url(#uuid-afa4667a-67b4-4a51-975b-af12d3d1a1e8)"/>
  </g>
</svg>